# xmcd
#
# Track frame offsets:
#	150
#	14185
#	31999
#	52124
#	67168
#	82335
#	99257
#	114304
#	125428
#	143049
#	158435
#	180635
#	184196
#
# Disc length: 2522 seconds
# Revision: 0
# Processed by: cddbd v1.5.2PL0 Copyright (c) Steve Scherf et al.
# Submitted via: dBpowerAMP V12.0
#
DISCID=b409d80d
DTITLE=Berthes - Chroniques ameres
DYEAR=2010
DGENRE=Chanson
TTITLE0=Le singe
TTITLE1=Jean-Pierre
TTITLE2=Mille fois
TTITLE3=Adonis
TTITLE4=Bois sans soif
TTITLE5=Amar
TTITLE6=Toi tu restes
TTITLE7=Jean-Marcel
TTITLE8=Qu'est qu'on dine
TTITLE9=Le badin
TTITLE10=Jeanne
TTITLE11=Ainsi va
TTITLE12=Le mouroir
EXTD=
EXTT0=
EXTT1=
EXTT2=
EXTT3=
EXTT4=
EXTT5=
EXTT6=
EXTT7=
EXTT8=
EXTT9=
EXTT10=
EXTT11=
EXTT12=
PLAYORDER=
